<svg width="86" height="86" viewBox="0 0 86 86" fill="none" xmlns="http://www.w3.org/2000/svg">
<g clip-path="url(#clip0_117912_321641)">
<mask id="mask0_117912_321641" style="mask-type:alpha" maskUnits="userSpaceOnUse" x="0" y="0" width="85" height="85">
<path d="M82.0337 0H2.00082C0.895798 0 0 0.90609 0 2.02381V82.9762C0 84.0939 0.895798 85 2.00082 85H82.0337C83.1387 85 84.0345 84.0939 84.0345 82.9762V2.02381C84.0345 0.90609 83.1387 0 82.0337 0Z" fill="white"/>
</mask>
<g mask="url(#mask0_117912_321641)">
<path d="M82 1H2C0.89543 1 0 1.90609 0 3.02381V83.9762C0 85.0939 0.89543 86 2 86H82C83.1046 86 84 85.0939 84 83.9762V3.02381C84 1.90609 83.1046 1 82 1Z" fill="white"/>
<path d="M89 1H1V7H89V1Z" fill="#BFBFBF"/>
<path d="M3.94261 5.04774C4.48854 5.04774 4.93111 4.59469 4.93111 4.03583C4.93111 3.47697 4.48854 3.02393 3.94261 3.02393C3.39667 3.02393 2.9541 3.47697 2.9541 4.03583C2.9541 4.59469 3.39667 5.04774 3.94261 5.04774Z" fill="#FAFAFA"/>
<path d="M7.89671 5.04774C8.44265 5.04774 8.88521 4.59469 8.88521 4.03583C8.88521 3.47697 8.44265 3.02393 7.89671 3.02393C7.35077 3.02393 6.9082 3.47697 6.9082 4.03583C6.9082 4.59469 7.35077 5.04774 7.89671 5.04774Z" fill="#FAFAFA"/>
<path d="M11.8508 5.04774C12.3967 5.04774 12.8393 4.59469 12.8393 4.03583C12.8393 3.47697 12.3967 3.02393 11.8508 3.02393C11.3049 3.02393 10.8623 3.47697 10.8623 4.03583C10.8623 4.59469 11.3049 5.04774 11.8508 5.04774Z" fill="#FAFAFA"/>
</g>
<path fill-rule="evenodd" clip-rule="evenodd" d="M26.9033 10C26.9033 9.44772 27.3459 9 27.8918 9H82.5736C83.1195 9 83.5621 9.44772 83.5621 10V15C83.5621 15.5523 83.1195 16 82.5736 16H27.8918C27.3459 16 26.9033 15.5523 26.9033 15V10Z" fill="#D9D9D9"/>
<path d="M0 7H25V85H2.19978C0.984881 85 0 84.1046 0 83V7Z" fill="#D9D9D9"/>
<path fill-rule="evenodd" clip-rule="evenodd" d="M6.75469 16C8.66546 16 10.2145 14.433 10.2145 12.5C10.2145 10.567 8.66546 9 6.75469 9C4.84391 9 3.29492 10.567 3.29492 12.5C3.29492 14.433 4.84391 16 6.75469 16Z" fill="#FAFAFA"/>
<path fill-rule="evenodd" clip-rule="evenodd" d="M12.1914 11.5C12.1914 10.9477 12.634 10.5 13.1799 10.5H21.088C21.6339 10.5 22.0765 10.9477 22.0765 11.5V13.5C22.0765 14.0523 21.6339 14.5 21.088 14.5H13.1799C12.634 14.5 12.1914 14.0523 12.1914 13.5V11.5Z" fill="#FAFAFA"/>
<path d="M4.29545 22H22.8096V83H4.29545V22Z" fill="#D9D9D9"/>
<path fill-rule="evenodd" clip-rule="evenodd" d="M21.8091 23C21.8091 22.4477 21.3665 22 20.8206 22H4.28343C3.73749 22 3.29492 22.4477 3.29492 23C3.29492 23.5523 3.73749 24 4.28343 24H20.8206C21.3665 24 21.8091 23.5523 21.8091 23Z" fill="#FAFAFA"/>
<path fill-rule="evenodd" clip-rule="evenodd" d="M21.8091 28C21.8091 27.4477 21.3665 27 20.8206 27H4.28343C3.73749 27 3.29492 27.4477 3.29492 28C3.29492 28.5523 3.73749 29 4.28343 29H20.8206C21.3665 29 21.8091 28.5523 21.8091 28Z" fill="#FAFAFA"/>
<path fill-rule="evenodd" clip-rule="evenodd" d="M21.8091 33C21.8091 32.4477 21.3665 32 20.8206 32H4.28343C3.73749 32 3.29492 32.4477 3.29492 33C3.29492 33.5523 3.73749 34 4.28343 34H20.8206C21.3665 34 21.8091 33.5523 21.8091 33Z" fill="#FAFAFA"/>
<path fill-rule="evenodd" clip-rule="evenodd" d="M21.8091 38C21.8091 37.4477 21.3665 37 20.8206 37H4.28343C3.73749 37 3.29492 37.4477 3.29492 38C3.29492 38.5523 3.73749 39 4.28343 39H20.8206C21.3665 39 21.8091 38.5523 21.8091 38Z" fill="#FAFAFA"/>
<path fill-rule="evenodd" clip-rule="evenodd" d="M21.8091 43C21.8091 42.4477 21.3665 42 20.8206 42H4.28343C3.73749 42 3.29492 42.4477 3.29492 43C3.29492 43.5523 3.73749 44 4.28343 44H20.8206C21.3665 44 21.8091 43.5523 21.8091 43Z" fill="#FAFAFA"/>
<path fill-rule="evenodd" clip-rule="evenodd" d="M21.8091 48C21.8091 47.4477 21.3665 47 20.8206 47H4.28343C3.73749 47 3.29492 47.4477 3.29492 48C3.29492 48.5523 3.73749 49 4.28343 49H20.8206C21.3665 49 21.8091 48.5523 21.8091 48Z" fill="#FAFAFA"/>
<path fill-rule="evenodd" clip-rule="evenodd" d="M21.8091 53C21.8091 52.4477 21.3665 52 20.8206 52H4.28343C3.73749 52 3.29492 52.4477 3.29492 53C3.29492 53.5523 3.73749 54 4.28343 54H20.8206C21.3665 54 21.8091 53.5523 21.8091 53Z" fill="#FAFAFA"/>
<path fill-rule="evenodd" clip-rule="evenodd" d="M21.8091 58C21.8091 57.4477 21.3665 57 20.8206 57H4.28343C3.73749 57 3.29492 57.4477 3.29492 58C3.29492 58.5523 3.73749 59 4.28343 59H20.8206C21.3665 59 21.8091 58.5523 21.8091 58Z" fill="#FAFAFA"/>
<path fill-rule="evenodd" clip-rule="evenodd" d="M26.7012 80C26.7012 79.4477 27.1437 79 27.6897 79H82.0575C82.6034 79 83.046 79.4477 83.046 80V82C83.046 82.5523 82.6034 83 82.0575 83H27.6897C27.1437 83 26.7012 82.5523 26.7012 82V80Z" fill="#BFBFBF"/>
<path d="M2.4707 0.5H81.5293C82.6066 0.5 83.4999 1.39738 83.5 2.5293V83.4707C83.4999 84.6026 82.6066 85.5 81.5293 85.5H2.4707C1.39344 85.5 0.500056 84.6026 0.5 83.4707V2.5293C0.50006 1.39738 1.39344 0.5 2.4707 0.5Z" stroke="#BFBFBF" stroke-linejoin="round"/>
<g clip-path="url(#clip1_117912_321641)">
<path d="M44 0H83C84.6569 0 86 1.34315 86 3V83C86 84.6569 84.6569 86 83 86H44V0Z" fill="black"/>
<g clip-path="url(#clip2_117912_321641)">
<mask id="mask1_117912_321641" style="mask-type:alpha" maskUnits="userSpaceOnUse" x="1" y="1" width="84" height="84">
<path d="M83 1H3C1.89543 1 1 1.89543 1 3V83C1 84.1046 1.89543 85 3 85H83C84.1046 85 85 84.1046 85 83V3C85 1.89543 84.1046 1 83 1Z" fill="white"/>
</mask>
<g mask="url(#mask1_117912_321641)">
<path d="M83 1H3C1.89543 1 1 1.89543 1 3V83C1 84.1046 1.89543 85 3 85H83C84.1046 85 85 84.1046 85 83V3C85 1.89543 84.1046 1 83 1Z" fill="#1F1F1F"/>
<path d="M87.9647 1H1V7H87.9647V1Z" fill="black"/>
</g>
<path fill-rule="evenodd" clip-rule="evenodd" d="M27 10.1667C27 9.52232 27.445 9 27.9938 9H81.0062C81.5551 9 82 9.52232 82 10.1667V14.8333C82 15.4777 81.5551 16 81.0062 16H27.9938C27.445 16 27 15.4777 27 14.8333V10.1667Z" fill="#434343"/>
<path fill-rule="evenodd" clip-rule="evenodd" d="M26.6943 80C26.6943 79.4477 27.1421 79 27.6943 79H81.0355C81.5878 79 82.0355 79.4477 82.0355 80V82C82.0355 82.5523 81.5878 83 81.0355 83H27.6943C27.1421 83 26.6943 82.5523 26.6943 82V80Z" fill="#434343"/>
<path d="M83 0.5H3C1.61929 0.5 0.5 1.61929 0.5 3V83C0.5 84.3807 1.61929 85.5 3 85.5H83C84.3807 85.5 85.5 84.3807 85.5 83V3C85.5 1.61929 84.3807 0.5 83 0.5Z" stroke="black" stroke-linejoin="round"/>
</g>
</g>
</g>
<defs>
<clipPath id="clip0_117912_321641">
<rect width="86" height="86" fill="white"/>
</clipPath>
<clipPath id="clip1_117912_321641">
<path d="M44 0H83C84.6569 0 86 1.34315 86 3V83C86 84.6569 84.6569 86 83 86H44V0Z" fill="white"/>
</clipPath>
<clipPath id="clip2_117912_321641">
<rect width="86" height="86" fill="white"/>
</clipPath>
</defs>
</svg>
