<svg width="20" height="20" viewBox="0 0 20 20" fill="none" xmlns="http://www.w3.org/2000/svg">
<g clip-path="url(#clip0_117632_126457)">
<path d="M7.41764 17.5003C8.75164 17.5003 9.83431 16.4177 9.83431 15.0837V12.667H7.41764C6.08364 12.667 5.00098 13.7497 5.00098 15.0837C5.00098 16.4177 6.08364 17.5003 7.41764 17.5003Z" fill="#0ACF83"/>
<path d="M5.00098 10.2497C5.00098 8.91567 6.08364 7.83301 7.41764 7.83301H9.83431V12.6663H7.41764C6.08364 12.6663 5.00098 11.5837 5.00098 10.2497Z" fill="#A259FF"/>
<path d="M5.00146 5.41667C5.00146 4.08267 6.08413 3 7.41813 3H9.8348V7.83333H7.41813C6.08413 7.83333 5.00146 6.75067 5.00146 5.41667Z" fill="#F24E1E"/>
<path d="M9.83423 3H12.2509C13.5849 3 14.6676 4.08267 14.6676 5.41667C14.6676 6.75067 13.5849 7.83333 12.2509 7.83333H9.83423V3Z" fill="#FF7262"/>
<path d="M14.6676 10.2497C14.6676 11.5837 13.5849 12.6663 12.2509 12.6663C10.9169 12.6663 9.83423 11.5837 9.83423 10.2497C9.83423 8.91567 10.9169 7.83301 12.2509 7.83301C13.5849 7.83301 14.6676 8.91567 14.6676 10.2497Z" fill="#1ABCFE"/>
</g>
<defs>
<clipPath id="clip0_117632_126457">
<rect width="9.6686" height="14.5" fill="white" transform="translate(5 3)"/>
</clipPath>
</defs>
</svg>
