<svg width="280" height="48" viewBox="0 0 280 48" fill="none" xmlns="http://www.w3.org/2000/svg">
<rect width="48" height="48" rx="4" fill="white" fill-opacity="0.06"/>
<rect x="0.5" y="0.5" width="47" height="47" rx="3.5" stroke="white" stroke-opacity="0.1"/>
<path d="M23.9999 30.6387C15.1157 30.6387 8.15991 27.6084 8.15991 23.7517C8.15991 19.895 15.1157 16.8647 23.9999 16.8647C32.8841 16.8647 39.8399 19.895 39.8399 23.7517C39.8399 27.6084 32.8841 30.6387 23.9999 30.6387ZM23.9999 18.2421C15.3223 18.2421 9.5373 21.0658 9.5373 23.7517C9.5373 26.4376 15.3223 29.2613 23.9999 29.2613C32.6775 29.2613 38.4625 26.4376 38.4625 23.7517C38.4625 21.0658 32.6775 18.2421 23.9999 18.2421Z" fill="#5CDBD3"/>
<path d="M17.871 37.9389C17.1823 37.9389 16.6314 37.8011 16.0804 37.4568C12.7058 35.5284 13.6011 28.0216 18.0088 20.3082C20.0749 16.727 22.623 13.6968 25.1023 11.7684C27.7883 9.70232 30.1987 9.08249 31.8516 10.0467C33.5733 11.0108 34.1931 13.4213 33.7799 16.7959C33.3667 19.9639 31.9893 23.6828 29.9232 27.2641C27.8571 30.8453 25.3089 33.8755 22.8296 35.8039C21.039 37.1813 19.3173 37.9389 17.871 37.9389ZM30.1298 10.942C29.0279 10.942 27.5816 11.5618 25.9976 12.8015C23.6561 14.6609 21.2456 17.5535 19.2484 20.9969C14.9096 28.5037 14.4964 34.9775 16.7691 36.286C17.9399 36.9747 19.8683 36.3549 22.0032 34.702C24.3448 32.8425 26.7552 29.95 28.7524 26.5065C30.7496 23.063 32.0582 19.5507 32.4714 16.5893C32.8157 13.8345 32.4025 11.9061 31.2317 11.2175C30.8874 11.0797 30.543 10.942 30.1298 10.942Z" fill="#5CDBD3"/>
<path d="M30.1979 37.9392C26.7544 37.9392 21.7958 33.7381 18.0768 27.1955C13.6003 19.4821 12.705 11.9753 16.0796 10.047C19.4542 8.11864 25.5147 12.5952 29.9913 20.3086C32.0574 23.8898 33.4347 27.6087 33.848 30.7767C34.33 34.1513 33.6413 36.4929 31.9196 37.526C31.3687 37.8014 30.8177 37.9392 30.1979 37.9392ZM16.7683 11.2178C14.4956 12.5263 14.9088 19 19.2476 26.5068C23.5864 34.0136 28.9582 37.5948 31.2309 36.2863C32.4017 35.5976 32.8149 33.6693 32.4706 30.9145C32.0573 27.9531 30.7488 24.4407 28.7516 20.9973C24.4128 13.4905 19.041 9.90925 16.7683 11.2178Z" fill="#5CDBD3"/>
<path d="M23.9988 26.5057C25.5202 26.5057 26.7536 25.2723 26.7536 23.7509C26.7536 22.2295 25.5202 20.9961 23.9988 20.9961C22.4774 20.9961 21.244 22.2295 21.244 23.7509C21.244 25.2723 22.4774 26.5057 23.9988 26.5057Z" fill="#5CDBD3"/>
<rect x="58" width="48" height="48" rx="4" fill="white" fill-opacity="0.06"/>
<rect x="58.5" y="0.5" width="47" height="47" rx="3.5" stroke="white" stroke-opacity="0.1"/>
<path fill-rule="evenodd" clip-rule="evenodd" d="M92.285 28.7074C92.4117 28.6346 92.5171 28.5297 92.5905 28.4034C92.664 28.277 92.7029 28.1335 92.7033 27.9874L92.7183 23.1649C92.7188 23.0187 92.7577 22.8752 92.8311 22.7489C92.9045 22.6225 93.0099 22.5176 93.1367 22.4449L95.7508 20.9432C95.8775 20.8704 96.0211 20.8323 96.1672 20.8325C96.3133 20.8327 96.4568 20.8714 96.5833 20.9446C96.7097 21.0178 96.8147 21.1229 96.8877 21.2495C96.9607 21.3761 96.9991 21.5196 96.9992 21.6657V30.4332C96.9991 30.5798 96.9604 30.7238 96.887 30.8506C96.8136 30.9775 96.7079 31.0827 96.5808 31.1557L86.715 36.8224C86.589 36.8947 86.4462 36.9328 86.3009 36.933C86.1556 36.9331 86.0128 36.8953 85.8867 36.8232L78.1442 32.3949C78.0166 32.322 77.9106 32.2167 77.8368 32.0897C77.7631 31.9627 77.7242 31.8184 77.7242 31.6715V27.2507C77.7242 27.2457 77.73 27.2424 77.735 27.2449C77.7392 27.2474 77.745 27.2449 77.745 27.239V27.234C77.745 27.2307 77.7467 27.2274 77.75 27.2257L84.1267 23.5624C84.1325 23.559 84.13 23.5499 84.1233 23.5499C84.1216 23.5499 84.1199 23.5492 84.1186 23.5479C84.1174 23.5466 84.1167 23.545 84.1167 23.5432L84.1292 19.209C84.1297 19.0625 84.0917 18.9183 84.0188 18.7912C83.9459 18.664 83.8407 18.5584 83.7139 18.4848C83.5872 18.4113 83.4432 18.3725 83.2967 18.3724C83.1501 18.3722 83.0061 18.4107 82.8792 18.484L78.14 21.2149C78.0135 21.2877 77.8701 21.326 77.7242 21.326C77.5782 21.326 77.4348 21.2877 77.3083 21.2149L72.5542 18.4774C72.4275 18.4044 72.2839 18.3661 72.1377 18.3662C71.9916 18.3663 71.848 18.4048 71.7215 18.4779C71.5949 18.5511 71.4898 18.6562 71.4167 18.7827C71.3436 18.9093 71.3051 19.0529 71.305 19.199V27.0324C71.3051 27.1784 71.2668 27.3218 71.194 27.4484C71.1213 27.5749 71.0165 27.6802 70.8902 27.7535C70.764 27.8268 70.6207 27.8657 70.4747 27.8662C70.3287 27.8668 70.1851 27.8289 70.0583 27.7565L67.42 26.2482C67.2922 26.1752 67.186 26.0697 67.1123 25.9423C67.0385 25.815 66.9998 25.6704 67 25.5232L67.0233 11.8315C67.0237 11.6856 67.0623 11.5422 67.1354 11.4159C67.2085 11.2896 67.3135 11.1847 67.44 11.1117C67.5664 11.0387 67.7097 11.0002 67.8557 11C68.0016 10.9998 68.1451 11.038 68.2717 11.1107L77.3092 16.3015C77.4355 16.374 77.5785 16.4122 77.7242 16.4122C77.8698 16.4122 78.0129 16.374 78.1392 16.3015L87.1742 11.1107C87.3009 11.0379 87.4446 10.9997 87.5908 11C87.737 11.0003 87.8805 11.039 88.007 11.1123C88.1334 11.1856 88.2384 11.2909 88.3114 11.4175C88.3843 11.5442 88.4226 11.6878 88.4225 11.834V25.529C88.4226 25.6755 88.384 25.8194 88.3107 25.9463C88.2374 26.0731 88.132 26.1784 88.005 26.2515L83.2733 28.9765C83.1462 29.0498 83.0407 29.1553 82.9675 29.2824C82.8943 29.4095 82.8559 29.5537 82.8562 29.7004C82.8565 29.8471 82.8956 29.9911 82.9694 30.1179C83.0433 30.2446 83.1492 30.3497 83.2767 30.4224L85.8867 31.9082C86.0128 31.98 86.1555 32.0176 86.3006 32.0173C86.4458 32.017 86.5883 31.9788 86.7142 31.9065L92.285 28.7074ZM92.8325 16.4224C92.8326 16.5697 92.8718 16.7144 92.9461 16.8417C93.0204 16.969 93.1271 17.0743 93.2553 17.1469C93.3836 17.2195 93.5288 17.2568 93.6761 17.255C93.8235 17.2531 93.9678 17.2123 94.0942 17.1365L96.5942 15.6365C96.7176 15.5626 96.8197 15.4579 96.8907 15.3328C96.9617 15.2076 96.9991 15.0662 96.9992 14.9224V11.8657C96.9989 11.7184 96.9596 11.5738 96.8853 11.4466C96.8109 11.3195 96.7042 11.2143 96.576 11.1418C96.4478 11.0693 96.3026 11.0321 96.1553 11.0339C96.008 11.0358 95.8639 11.0766 95.7375 11.1524L93.2375 12.6524C93.1141 12.7263 93.0119 12.8309 92.9409 12.9561C92.87 13.0813 92.8326 13.2226 92.8325 13.3665V16.4232V16.4224Z" fill="#1677FF"/>
<rect x="116" width="48" height="48" rx="4" fill="white" fill-opacity="0.06"/>
<rect x="116.5" y="0.5" width="47" height="47" rx="3.5" stroke="white" stroke-opacity="0.1"/>
<path d="M128.16 40.3201C125.951 40.3201 124.16 38.5293 124.16 36.3201V12.6401C124.16 10.431 125.951 8.64014 128.16 8.64014H151.84C154.049 8.64014 155.84 10.431 155.84 12.6401V36.3201C155.84 38.5293 154.049 40.3201 151.84 40.3201H128.16Z" fill="#FFC53D"/>
<path d="M144.873 32.3536C145.482 33.3427 146.144 34.2905 147.546 34.2905C148.723 34.2905 149.341 33.7053 149.341 32.8957C149.341 31.9268 148.702 31.5827 147.407 31.0186L146.697 30.7159C144.647 29.8465 143.284 28.757 143.284 26.4558C143.284 24.335 144.908 22.7211 147.445 22.7211C149.251 22.7211 150.549 23.3468 151.486 24.9853L149.273 26.3995C148.787 25.5301 148.26 25.1877 147.445 25.1877C146.612 25.1877 146.085 25.7131 146.085 26.3995C146.085 27.2478 146.613 27.591 147.832 28.1164L148.542 28.4191C150.958 29.4478 152.32 30.4985 152.32 32.8605C152.32 35.4054 150.31 36.8002 147.612 36.8002C144.973 36.8002 143.474 35.4758 142.64 33.8364L144.873 32.3536ZM134.678 32.4257C135.123 33.223 135.8 33.8364 136.773 33.8364C137.704 33.8364 138.24 33.4685 138.24 32.0385V22.7202H141.173V32.4891C141.173 35.4521 139.454 36.8002 136.944 36.8002C134.677 36.8002 133.04 35.2637 132.373 33.8364L134.678 32.4257Z" fill="#000001"/>
<rect x="174" width="48" height="48" rx="4" fill="white" fill-opacity="0.06"/>
<rect x="174.5" y="0.5" width="47" height="47" rx="3.5" stroke="white" stroke-opacity="0.1"/>
<path d="M209 9.6001H187C184.791 9.6001 183 11.391 183 13.6001V35.6001C183 37.8092 184.791 39.6001 187 39.6001H209C211.209 39.6001 213 37.8092 213 35.6001V13.6001C213 11.391 211.209 9.6001 209 9.6001Z" fill="#1976D2"/>
<path d="M200.908 22.9336H189.855V25.6536H193.82V37.9336H196.96V25.6536H200.908V22.9336Z" fill="white"/>
<path d="M210.661 26.3366C210.661 26.3366 209.172 25.3433 207.489 25.3433C205.805 25.3433 205.2 26.1433 205.2 26.9983C205.2 29.205 211.35 28.9841 211.35 33.425C211.35 40.2658 201.972 37.2316 201.972 37.2316V33.95C201.972 33.95 203.765 35.3016 205.916 35.3016C208.067 35.3016 207.985 33.895 207.985 33.7016C207.985 31.6608 201.89 31.6608 201.89 27.1366C201.89 20.9858 210.771 23.4125 210.771 23.4125L210.661 26.3366Z" fill="white"/>
<rect x="232" width="48" height="48" rx="4" fill="white" fill-opacity="0.06"/>
<rect x="232.5" y="0.5" width="47" height="47" rx="3.5" stroke="white" stroke-opacity="0.1"/>
<g clip-path="url(#clip0_117587_1971)">
<path d="M251.751 37.9998C254.372 37.9998 256.5 35.9092 256.5 33.3332V28.6665H251.751C249.13 28.6665 247.002 30.7572 247.002 33.3332C247.002 35.9092 249.13 37.9998 251.751 37.9998Z" fill="#73D13D"/>
<path d="M247.002 24.0002C247.002 21.4242 249.13 19.3335 251.751 19.3335H256.5V28.6668H251.751C249.13 28.6668 247.002 26.5762 247.002 24.0002Z" fill="#A259FF"/>
<path d="M247.002 14.6667C247.002 12.0907 249.13 10 251.751 10H256.5V19.3333H251.751C249.13 19.3333 247.002 17.2427 247.002 14.6667Z" fill="#FF4D4F"/>
<path d="M256.5 10H261.249C263.871 10 265.998 12.0907 265.998 14.6667C265.998 17.2427 263.871 19.3333 261.249 19.3333H256.5V10Z" fill="#FF7875"/>
<path d="M265.998 24.0002C265.998 26.5762 263.871 28.6668 261.249 28.6668C258.628 28.6668 256.5 26.5762 256.5 24.0002C256.5 21.4242 258.628 19.3335 261.249 19.3335C263.871 19.3335 265.998 21.4242 265.998 24.0002Z" fill="#4096FF"/>
</g>
<defs>
<clipPath id="clip0_117587_1971">
<rect width="19" height="28" fill="white" transform="translate(247 10)"/>
</clipPath>
</defs>
</svg>
